<?xml version="1.0" encoding="utf-8"?>
<!-- Generator: Adobe Illustrator 27.0.1, SVG Export Plug-In . SVG Version: 6.00 Build 0)  -->
<svg version="1.1" id="Livello_2_00000121278092001957166060000006370603544794752181_"
	 xmlns="http://www.w3.org/2000/svg" xmlns:xlink="http://www.w3.org/1999/xlink" x="0px" y="0px" viewBox="0 0 43.4 50.2"
	 style="enable-background:new 0 0 43.4 50.2;" xml:space="preserve">
<style type="text/css">
	.st0{fill:#FFFFFF;}
</style>
<g id="Livello_1-2">
	<g>
		<path class="st0" d="M31.1,34.6c-0.7,0-1.4-0.1-2.1-0.3l-6.8-2.1v-4.4c0-2.1,0.8-4,2.3-5.3s3.4-2,5.5-1.7l1.7,0.2
			c3.3,0.3,5.8,2.9,6.2,6.2c0,0.5,0,0.9,0,1.4c-0.1,1.4-0.7,2.7-1.6,3.7l0,0C35,33.8,33.1,34.6,31.1,34.6L31.1,34.6z M24.8,30.3
			l4.9,1.5c1.7,0.5,3.5,0,4.5-1.2c0.5-0.7,0.9-1.5,1-2.3c0-0.3,0-0.6,0-0.9c-0.2-2-1.8-3.6-3.8-3.8l-1.7-0.2
			c-1.3-0.1-2.6,0.2-3.5,1.1c-0.9,0.8-1.4,2-1.4,3.3L24.8,30.3L24.8,30.3z"/>
		<path class="st0" d="M35.1,17.2c-0.2,0-0.5,0-0.7,0L11,14.7V8.5c0-3.8,3.1-6.9,6.9-6.9l17.9,1.8c3.8,0.4,6.5,3.8,6.1,7.6
			c-0.2,1.8-1.1,3.5-2.5,4.6C38.2,16.6,36.7,17.2,35.1,17.2L35.1,17.2z M13.6,12.4l21,2.2c1.1,0.1,2.3-0.2,3.1-0.9s1.4-1.7,1.6-2.9
			c0.2-2.3-1.5-4.4-3.8-4.7L17.8,4.3c-2.2,0-4.1,1.9-4.1,4.3L13.6,12.4L13.6,12.4z"/>
		<path class="st0" d="M17.9,48.5c-3.8,0-6.9-3.1-6.9-6.9v-17l1.9,0.8c4.7,2.1,11,4.6,11.1,4.6l0.8,0.3v11.2
			C24.8,45.4,21.7,48.5,17.9,48.5z M13.6,28.6v13c0,2.4,1.9,4.3,4.3,4.3s4.3-1.9,4.3-4.3v-9.5C20.6,31.5,16.9,30.1,13.6,28.6
			L13.6,28.6z"/>
		<path class="st0" d="M13.6,28.7l-1.9-0.8c-1.7-0.8-3.1-1.5-4-2c-3.4-2-5.6-4.3-6.1-6.7c-0.1-0.4-0.2-1.4-0.2-2
			c0.3-3.2,3-5.3,6.9-5.3c0.2,0,0.5,0,0.7,0l4.6,0.5L13.6,28.7L13.6,28.7z M8.4,14.5c-1.2,0-4,0.3-4.3,3c0,0.2,0,0.8,0.1,1.1
			c0.4,1.6,2.2,3.4,4.9,5c0.5,0.3,1.1,0.6,1.9,1v-9.9l-2.2-0.2C8.6,14.5,8.5,14.5,8.4,14.5z"/>
	</g>
</g>
</svg>
