<?xml version="1.0" encoding="UTF-8"?><svg id="Livello_2" xmlns="http://www.w3.org/2000/svg" viewBox="0 0 160.69 160.69"><defs><style>.cls-1{fill:#015757;}.cls-2{fill:#05ce91;}</style></defs><g id="Livello_1-2"><g><circle class="cls-1" cx="80.35" cy="80.35" r="80.35"/><g><path class="cls-2" d="M101.81,105.46c-1.67,0-3.38-.25-5.05-.76l-16.48-5.03v-10.54c0-4.99,1.96-9.5,5.51-12.71s8.26-4.69,13.21-4.18l4.26,.45c7.8,.82,14.01,7.07,14.77,14.86,.1,1.13,.09,2.23-.02,3.3-.35,3.3-1.65,6.38-3.76,8.92h0c-3.09,3.68-7.66,5.7-12.44,5.7Zm-16.42-9.57l12.86,3.93c4.49,1.37,9.23,.06,12.09-3.33,1.46-1.75,2.36-3.89,2.6-6.17,.08-.74,.08-1.52,.01-2.3-.52-5.36-4.82-9.68-10.21-10.25l-4.26-.44c-3.51-.36-6.79,.67-9.26,2.9-2.47,2.23-3.83,5.39-3.83,8.91v6.76Z"/><path class="cls-2" d="M111.94,61.78c-.58,0-1.16-.03-1.74-.09l-57.9-5.99v-14.81c0-9.12,7.42-16.54,16.55-16.54l44.76,4.45c9.07,.94,15.69,9.08,14.75,18.15-.46,4.39-2.59,8.35-6.02,11.14-2.98,2.41-6.62,3.7-10.4,3.7Zm-54.53-10.69l53.31,5.51c3.04,.32,6.02-.57,8.39-2.49,2.37-1.93,3.85-4.66,4.16-7.7,.31-3.04-.57-6.01-2.5-8.38s-4.66-3.85-7.69-4.16l-44.49-4.44c-6.05,.01-11.19,5.14-11.19,11.45v10.21Z"/><path class="cls-2" d="M68.86,140.23c-9.12,0-16.55-7.42-16.55-16.54v-41.47l3.61,1.63c11.78,5.34,27.68,11.49,27.84,11.55l1.63,.63v27.65c0,9.12-7.42,16.54-16.54,16.54Zm-11.44-50.12v33.58c0,6.31,5.13,11.44,11.44,11.44s11.43-5.13,11.43-11.44v-24.16c-3.87-1.52-13.91-5.5-22.87-9.42Z"/><path class="cls-2" d="M57.42,90.14l-3.61-1.64c-4.34-1.97-7.69-3.63-9.95-4.94-8.42-4.88-13.63-10.49-15.05-16.24-.26-1-.55-3.35-.4-4.71,.81-7.85,7.17-12.73,16.58-12.73,.55,0,1.11,.03,1.67,.09l10.76,1.11v39.04Zm-12.43-35.14c-2.5,0-10.72,.59-11.5,8.15-.06,.55,.1,2.25,.28,2.93,1.07,4.32,5.56,8.96,12.65,13.06,1.46,.84,3.44,1.86,5.9,3.03v-26.47l-6.18-.64c-.39-.04-.77-.07-1.14-.07Z"/></g></g></g></svg>