<?xml version="1.0" encoding="UTF-8"?><svg id="Livello_2" xmlns="http://www.w3.org/2000/svg" viewBox="0 0 78.25 90.42"><defs><style>.cls-1{fill:#015757;}</style></defs><g id="Livello_1-2"><g><path class="cls-1" d="M57.16,63.63c-1.35,0-2.71-.2-4.06-.61l-13.1-4v-8.54c0-4,1.57-7.63,4.43-10.21,2.86-2.58,6.63-3.78,10.61-3.36l3.29,.34c6.28,.66,11.27,5.69,11.88,11.96,.08,.92,.07,1.8-.01,2.65-.28,2.66-1.33,5.13-3.02,7.17h0c-2.49,2.97-6.17,4.6-10.01,4.6Zm-12.1-8.35l9.52,2.91c3.24,.99,6.66,.05,8.72-2.39,1.05-1.27,1.7-2.81,1.88-4.45,.05-.53,.06-1.1,0-1.67-.38-3.86-3.48-6.97-7.37-7.38l-3.28-.34c-2.52-.26-4.92,.48-6.71,2.09-1.78,1.61-2.76,3.9-2.76,6.45v4.8Z"/><path class="cls-1" d="M64.97,29.97c-.46,0-.93-.02-1.4-.07l-45.12-4.67V13.31C18.45,5.97,24.42,0,31.76,0l34.55,3.43c7.3,.76,12.62,7.3,11.86,14.6-.37,3.54-2.09,6.72-4.85,8.96-2.39,1.94-5.32,2.98-8.36,2.98ZM23.5,20.67l40.58,4.2c2.2,.23,4.35-.41,6.06-1.8,1.71-1.39,2.78-3.36,3-5.55,.47-4.52-2.83-8.58-7.35-9.05L31.51,5.04c-4.3,.01-8,3.72-8,8.27v7.36Z"/><path class="cls-1" d="M31.76,90.42c-7.34,0-13.31-5.97-13.31-13.31V44.29l3.57,1.62c9.06,4.11,21.3,8.84,21.42,8.89l1.62,.62v21.69c0,7.34-5.97,13.31-13.3,13.31Zm-8.26-38.33v25.02c0,4.55,3.7,8.26,8.26,8.26s8.25-3.7,8.25-8.26v-18.24c-3.08-1.21-10.06-3.99-16.5-6.79Z"/><path class="cls-1" d="M23.5,52.13l-3.57-1.62c-3.35-1.52-5.95-2.81-7.72-3.83C5.59,42.84,1.49,38.4,.36,33.82c-.21-.84-.44-2.71-.32-3.82,.65-6.26,5.88-10.31,13.33-10.31,.44,0,.89,.03,1.34,.07l8.8,.91v31.46ZM13.37,24.74c-2.32,0-7.76,.56-8.31,5.78-.04,.37,.08,1.6,.2,2.07,.79,3.18,4.15,6.63,9.49,9.72,.96,.55,2.19,1.2,3.7,1.93V25.23l-4.26-.44c-.27-.03-.55-.05-.82-.05Z"/></g></g></svg>