<?xml version="1.0" encoding="UTF-8"?><svg id="Livello_2" xmlns="http://www.w3.org/2000/svg" viewBox="0 0 159.04 159.04"><defs><style>.cls-1{fill:#015757;}.cls-2{fill:#05ce91;}</style></defs><g id="Livello_1-2"><g><circle class="cls-2" cx="79.52" cy="79.52" r="79.52"/><g><path class="cls-1" d="M100.77,104.37c-1.66,0-3.34-.25-5-.75l-16.31-4.98v-10.43c0-4.93,1.94-9.4,5.46-12.57,3.52-3.17,8.17-4.64,13.07-4.14l4.22,.44c7.72,.81,13.87,7,14.62,14.71,.1,1.12,.09,2.21-.02,3.27-.34,3.26-1.63,6.31-3.72,8.82h0c-3.06,3.65-7.58,5.64-12.31,5.64Zm-16.25-9.47l12.73,3.88c4.44,1.35,9.13,.06,11.96-3.3,1.44-1.74,2.33-3.85,2.57-6.11,.08-.74,.08-1.5,.02-2.28-.51-5.3-4.77-9.58-10.11-10.14l-4.21-.44c-3.46-.36-6.72,.66-9.17,2.86-2.44,2.2-3.79,5.34-3.79,8.82v6.69Z"/><path class="cls-1" d="M110.77,61.14c-.56,0-1.13-.03-1.7-.09l-57.3-5.93v-14.66c0-9.03,7.35-16.38,16.38-16.38l44.3,4.41c4.35,.45,8.26,2.57,11.02,5.96,2.76,3.39,4.03,7.66,3.58,12-.87,8.41-8,14.68-16.28,14.68Zm-53.94-10.58l52.77,5.46c6.2,.64,11.78-3.88,12.42-10.09,.31-3-.57-5.95-2.47-8.29-1.9-2.34-4.61-3.81-7.61-4.12l-44.04-4.39c-5.99,.01-11.07,5.09-11.07,11.33v10.1Z"/><path class="cls-1" d="M68.15,138.78c-9.03,0-16.38-7.35-16.38-16.38v-41.04l3.57,1.62c11.66,5.28,27.4,11.37,27.55,11.43l1.62,.62v27.37c0,9.03-7.34,16.38-16.37,16.38Zm-11.32-49.61v33.23c0,6.24,5.08,11.32,11.32,11.32s11.31-5.08,11.31-11.32v-23.91c-3.82-1.5-13.77-5.44-22.63-9.32Z"/><path class="cls-1" d="M56.83,89.2l-3.57-1.62c-4.28-1.94-7.59-3.58-9.85-4.88-8.34-4.83-13.49-10.39-14.89-16.07-.25-.99-.54-3.32-.4-4.66,.81-7.77,7.09-12.59,16.41-12.59,.55,0,1.1,.03,1.66,.09l10.65,1.1v38.64Zm-12.3-34.77c-2.47,0-10.6,.58-11.38,8.06-.06,.54,.1,2.23,.28,2.9,1.06,4.28,5.5,8.86,12.52,12.93,1.45,.84,3.41,1.84,5.83,3v-26.2l-6.12-.63c-.38-.04-.76-.06-1.13-.06Z"/></g></g></g></svg>