<?xml version="1.0" encoding="UTF-8"?><svg id="Livello_2" xmlns="http://www.w3.org/2000/svg" viewBox="0 0 443.65 90.43"><defs><style>.cls-1{fill:#015757;}.cls-2{fill:#05ce91;}</style></defs><g id="Livello_1-2"><g><g><path class="cls-1" d="M57.16,63.63c-1.35,0-2.71-.2-4.05-.61l-13.1-4v-8.54c0-4,1.57-7.63,4.43-10.21,2.86-2.58,6.63-3.78,10.61-3.36l3.29,.34c6.28,.66,11.27,5.69,11.88,11.96,.08,.91,.07,1.8-.02,2.65-.28,2.65-1.33,5.13-3.02,7.17h0c-2.49,2.97-6.17,4.59-10.01,4.59Zm-12.09-8.35l9.51,2.91c3.24,.98,6.67,.05,8.72-2.39,1.05-1.27,1.7-2.81,1.87-4.45,.06-.54,.06-1.1,.01-1.67-.37-3.86-3.48-6.98-7.37-7.39l-3.28-.34c-2.54-.26-4.92,.48-6.7,2.09-1.78,1.61-2.77,3.9-2.77,6.45v4.8Z"/><path class="cls-1" d="M64.97,29.97c-.46,0-.93-.02-1.4-.07l-45.12-4.67V13.31C18.45,5.97,24.42,0,31.76,0l34.55,3.43c3.53,.37,6.71,2.09,8.95,4.84,2.24,2.76,3.28,6.22,2.91,9.76-.37,3.54-2.09,6.72-4.85,8.96-2.39,1.94-5.32,2.98-8.37,2.98ZM23.51,20.67l40.58,4.2c2.19,.22,4.34-.41,6.06-1.8,1.71-1.39,2.78-3.36,3-5.55,.23-2.19-.41-4.34-1.8-6.05-1.39-1.71-3.36-2.78-5.55-3L31.51,5.04c-4.3,.01-8.01,3.72-8.01,8.27v7.36Z"/><path class="cls-1" d="M31.76,90.43c-7.34,0-13.31-5.97-13.31-13.31V44.29l3.57,1.62c9.07,4.1,21.3,8.84,21.43,8.89l1.62,.62v21.69c0,7.34-5.97,13.31-13.3,13.31Zm-8.26-38.33v25.02c0,4.55,3.7,8.26,8.26,8.26s8.25-3.7,8.25-8.26v-18.24c-3.08-1.21-10.06-3.99-16.5-6.79Z"/><path class="cls-1" d="M23.51,52.13l-3.57-1.62c-3.36-1.53-5.96-2.81-7.72-3.83C5.59,42.84,1.49,38.39,.36,33.82c-.21-.83-.44-2.7-.33-3.82,.65-6.26,5.88-10.31,13.33-10.31,.44,0,.89,.03,1.34,.07l8.8,.91v31.46ZM13.37,24.74c-2.32,0-7.76,.56-8.31,5.78-.04,.37,.08,1.6,.2,2.06,.79,3.19,4.16,6.63,9.49,9.72,.95,.55,2.19,1.19,3.7,1.93V25.23l-4.26-.44c-.27-.03-.55-.05-.82-.05Z"/></g><g><path class="cls-1" d="M101.76,23.64v6.32h13.97v5.81h-13.97v11.33h-6.44V17.83h22.29v5.81h-15.85Z"/><path class="cls-1" d="M135.27,30.92c-2.12,0-3.79,.64-5,1.92-1.21,1.28-1.82,3.28-1.82,5.98v8.28h-6.36V24.69h6.36v4.52c.64-1.53,1.52-2.76,2.64-3.68,1.12-.92,2.62-1.34,4.52-1.25v6.65h-.33Z"/><path class="cls-1" d="M152.71,47.11v-2.43c-.78,.86-1.71,1.55-2.8,2.07s-2.41,.77-3.97,.77c-1.06,0-2.06-.15-2.99-.44-.93-.29-1.75-.73-2.45-1.32-.7-.59-1.25-1.3-1.65-2.15s-.61-1.83-.61-2.95v-.08c0-1.23,.22-2.29,.67-3.18,.45-.89,1.07-1.63,1.86-2.22,.8-.59,1.74-1.03,2.84-1.32,1.1-.29,2.32-.44,3.66-.44,1.14,0,2.14,.08,2.99,.25,.85,.17,1.68,.39,2.49,.67v-.38c0-1.34-.4-2.36-1.21-3.05-.81-.7-2.01-1.05-3.6-1.05-1.23,0-2.31,.1-3.24,.31-.93,.21-1.92,.51-2.95,.9l-1.59-4.85c1.23-.53,2.51-.96,3.85-1.3,1.34-.33,2.96-.5,4.85-.5,3.49,0,6.02,.85,7.61,2.55,1.59,1.7,2.38,4.07,2.38,7.11v13.01h-6.15Zm.13-9.04c-.56-.25-1.18-.45-1.86-.61-.68-.15-1.42-.23-2.2-.23-1.37,0-2.44,.27-3.22,.8-.78,.53-1.17,1.3-1.17,2.3v.08c0,.86,.32,1.53,.96,2.01,.64,.48,1.48,.71,2.51,.71,1.5,0,2.71-.36,3.62-1.09,.91-.72,1.36-1.67,1.36-2.84v-1.13Z"/><path class="cls-1" d="M178.52,47.11v-12.48c0-1.5-.33-2.64-1-3.4-.67-.77-1.62-1.15-2.84-1.15s-2.2,.38-2.91,1.15c-.71,.76-1.07,1.9-1.07,3.4v12.48h-6.36V24.69h6.36v3.21c.36-.48,.76-.93,1.19-1.37,.43-.43,.91-.82,1.44-1.16,.53-.34,1.12-.6,1.76-.8,.64-.2,1.37-.3,2.17-.3,2.43,0,4.3,.74,5.63,2.22,1.32,1.48,1.99,3.51,1.99,6.11v14.51h-6.36Z"/><path class="cls-1" d="M206.41,46.46c-1.4,.77-3.21,1.15-5.44,1.15-1.67,0-3.23-.31-4.66-.92-1.44-.61-2.67-1.44-3.7-2.49s-1.84-2.27-2.43-3.68-.88-2.91-.88-4.5v-.08c0-1.59,.29-3.1,.88-4.52s1.39-2.66,2.43-3.72,2.27-1.9,3.7-2.51c1.44-.61,3.02-.92,4.75-.92,2.12,0,3.87,.33,5.27,1,1.39,.67,2.62,1.59,3.68,2.76l-3.89,4.18c-.73-.75-1.47-1.35-2.24-1.8-.77-.45-1.72-.67-2.86-.67-.81,0-1.54,.16-2.2,.48-.65,.32-1.23,.76-1.71,1.32-.49,.56-.87,1.21-1.13,1.95-.27,.74-.4,1.53-.4,2.36v.08c0,.86,.13,1.67,.4,2.43,.26,.75,.65,1.41,1.15,1.96,.5,.56,1.1,1,1.8,1.32,.7,.32,1.48,.48,2.34,.48,1.06,0,1.99-.22,2.78-.65,.8-.43,1.58-1.01,2.36-1.74l3.72,3.76c-1.09,1.2-2.33,2.18-3.72,2.95Z"/><path class="cls-1" d="M235.17,37.32c-.01,.22-.04,.49-.06,.79h-15.6c.31,1.45,.94,2.54,1.9,3.28,.96,.74,2.15,1.11,3.58,1.11,1.06,0,2.01-.18,2.84-.54,.84-.36,1.7-.95,2.59-1.76l3.64,3.22c-1.06,1.31-2.34,2.34-3.85,3.07-1.51,.74-3.28,1.11-5.31,1.11-1.67,0-3.23-.28-4.66-.84-1.44-.56-2.68-1.35-3.72-2.38-1.05-1.03-1.86-2.25-2.45-3.66-.59-1.41-.88-2.98-.88-4.71v-.08c0-1.59,.27-3.1,.82-4.52,.54-1.42,1.3-2.66,2.28-3.72,.97-1.06,2.14-1.9,3.49-2.51,1.35-.61,2.85-.92,4.5-.92,1.87,0,3.48,.33,4.85,1,1.37,.67,2.5,1.57,3.41,2.7,.91,1.13,1.58,2.42,2.01,3.89,.43,1.46,.65,2.99,.65,4.58v.08c0,.31,0,.57-.02,.8Zm-7.68-6.63c-.81-.88-1.88-1.32-3.22-1.32s-2.42,.43-3.24,1.3-1.36,2.02-1.61,3.47h9.58c-.2-1.42-.7-2.57-1.51-3.45Z"/><path class="cls-1" d="M255.71,43.53c-.43,.91-1.04,1.65-1.82,2.24-.78,.59-1.69,1.03-2.74,1.32-1.05,.29-2.17,.44-3.37,.44-1.59,0-3.21-.27-4.87-.82-1.66-.54-3.24-1.4-4.75-2.57l2.72-4.18c1.23,.89,2.45,1.56,3.66,2.01,1.21,.45,2.35,.67,3.41,.67,.92,0,1.6-.15,2.03-.46,.43-.31,.65-.71,.65-1.21v-.08c0-.33-.13-.63-.38-.88-.25-.25-.59-.47-1.02-.65-.43-.18-.93-.36-1.48-.52-.56-.17-1.14-.35-1.76-.54-.78-.22-1.57-.49-2.36-.82-.8-.32-1.51-.74-2.15-1.26-.64-.51-1.17-1.15-1.57-1.9-.41-.75-.61-1.67-.61-2.76v-.08c0-1.14,.22-2.15,.65-3.03,.43-.88,1.02-1.62,1.76-2.24,.74-.61,1.6-1.07,2.6-1.38,.99-.31,2.06-.46,3.2-.46,1.42,0,2.86,.23,4.33,.69,1.47,.46,2.81,1.09,4.04,1.9l-2.43,4.39c-1.12-.64-2.2-1.15-3.26-1.53-1.06-.38-2-.56-2.8-.56s-1.37,.15-1.76,.44c-.39,.29-.59,.66-.59,1.11v.08c0,.31,.13,.58,.38,.82,.25,.24,.59,.46,1,.67s.9,.41,1.44,.61c.54,.19,1.12,.39,1.74,.59,.78,.25,1.57,.55,2.38,.9,.81,.35,1.53,.77,2.18,1.28,.64,.5,1.17,1.12,1.59,1.84,.42,.73,.63,1.6,.63,2.63v.08c0,1.25-.22,2.34-.65,3.24Z"/><path class="cls-1" d="M276.94,46.46c-1.39,.77-3.21,1.15-5.44,1.15-1.67,0-3.23-.31-4.66-.92-1.44-.61-2.67-1.44-3.7-2.49-1.03-1.05-1.84-2.27-2.43-3.68-.59-1.41-.88-2.91-.88-4.5v-.08c0-1.59,.29-3.1,.88-4.52,.59-1.42,1.39-2.66,2.43-3.72,1.03-1.06,2.26-1.9,3.7-2.51,1.44-.61,3.02-.92,4.75-.92,2.12,0,3.87,.33,5.27,1,1.39,.67,2.62,1.59,3.68,2.76l-3.89,4.18c-.73-.75-1.47-1.35-2.24-1.8-.77-.45-1.72-.67-2.86-.67-.81,0-1.54,.16-2.19,.48-.66,.32-1.23,.76-1.72,1.32-.49,.56-.87,1.21-1.13,1.95s-.4,1.53-.4,2.36v.08c0,.86,.13,1.67,.4,2.43,.26,.75,.65,1.41,1.15,1.96,.5,.56,1.1,1,1.8,1.32,.7,.32,1.48,.48,2.34,.48,1.06,0,1.99-.22,2.78-.65,.79-.43,1.58-1.01,2.36-1.74l3.72,3.76c-1.09,1.2-2.33,2.18-3.72,2.95Z"/><path class="cls-1" d="M297.94,47.11v-2.43c-.78,.86-1.72,1.55-2.8,2.07-1.09,.52-2.41,.77-3.97,.77-1.06,0-2.06-.15-2.99-.44-.93-.29-1.75-.73-2.45-1.32s-1.25-1.3-1.65-2.15c-.41-.85-.61-1.83-.61-2.95v-.08c0-1.23,.22-2.29,.67-3.18,.44-.89,1.06-1.63,1.86-2.22s1.74-1.03,2.85-1.32c1.1-.29,2.32-.44,3.66-.44,1.14,0,2.14,.08,2.99,.25,.85,.17,1.68,.39,2.49,.67v-.38c0-1.34-.41-2.36-1.21-3.05-.81-.7-2.01-1.05-3.6-1.05-1.23,0-2.31,.1-3.24,.31-.93,.21-1.92,.51-2.95,.9l-1.59-4.85c1.23-.53,2.51-.96,3.85-1.3,1.34-.33,2.95-.5,4.85-.5,3.49,0,6.02,.85,7.61,2.55,1.59,1.7,2.38,4.07,2.38,7.11v13.01h-6.15Zm.13-9.04c-.56-.25-1.18-.45-1.86-.61-.68-.15-1.42-.23-2.19-.23-1.37,0-2.44,.27-3.22,.8s-1.17,1.3-1.17,2.3v.08c0,.86,.32,1.53,.96,2.01,.64,.48,1.48,.71,2.51,.71,1.51,0,2.71-.36,3.62-1.09,.91-.72,1.36-1.67,1.36-2.84v-1.13Z"/><path class="cls-1" d="M340.56,47.11l-6.27-9.37h-5.06v9.37h-6.44V17.83h13.38c3.49,0,6.2,.85,8.14,2.55s2.91,4.07,2.91,7.11v.08c0,2.37-.58,4.3-1.73,5.79-1.16,1.49-2.67,2.59-4.54,3.28l7.15,10.46h-7.53Zm.13-19.28c0-1.39-.45-2.44-1.34-3.14-.89-.7-2.13-1.05-3.72-1.05h-6.4v8.41h6.52c1.59,0,2.81-.38,3.66-1.13,.85-.75,1.27-1.76,1.27-3.01v-.08Z"/><path class="cls-1" d="M366.36,47.11v-3.21c-.36,.48-.76,.93-1.19,1.37-.43,.43-.91,.82-1.44,1.16-.53,.34-1.11,.6-1.76,.8-.64,.2-1.37,.29-2.17,.29-2.43,0-4.3-.74-5.63-2.22-1.33-1.48-1.99-3.51-1.99-6.11v-14.51h6.36v12.48c0,1.5,.33,2.64,1,3.4,.67,.76,1.62,1.15,2.85,1.15s2.19-.38,2.91-1.15c.71-.77,1.07-1.9,1.07-3.4v-12.48h6.36v22.42h-6.36Z"/><path class="cls-1" d="M394.2,43.53c-.43,.91-1.04,1.65-1.82,2.24-.78,.59-1.69,1.03-2.74,1.32-1.05,.29-2.17,.44-3.37,.44-1.59,0-3.21-.27-4.87-.82-1.66-.54-3.24-1.4-4.75-2.57l2.72-4.18c1.23,.89,2.45,1.56,3.66,2.01,1.21,.45,2.35,.67,3.41,.67,.92,0,1.6-.15,2.03-.46,.43-.31,.65-.71,.65-1.21v-.08c0-.33-.13-.63-.38-.88-.25-.25-.59-.47-1.02-.65-.43-.18-.93-.36-1.48-.52-.56-.17-1.14-.35-1.76-.54-.78-.22-1.57-.49-2.36-.82-.8-.32-1.51-.74-2.15-1.26-.64-.51-1.17-1.15-1.57-1.9-.41-.75-.61-1.67-.61-2.76v-.08c0-1.14,.22-2.15,.65-3.03,.43-.88,1.02-1.62,1.76-2.24,.74-.61,1.6-1.07,2.6-1.38,.99-.31,2.06-.46,3.2-.46,1.42,0,2.86,.23,4.33,.69,1.47,.46,2.81,1.09,4.04,1.9l-2.43,4.39c-1.12-.64-2.2-1.15-3.26-1.53-1.06-.38-2-.56-2.8-.56s-1.37,.15-1.76,.44c-.39,.29-.59,.66-.59,1.11v.08c0,.31,.13,.58,.38,.82,.25,.24,.59,.46,1,.67s.9,.41,1.44,.61c.54,.19,1.12,.39,1.74,.59,.78,.25,1.57,.55,2.38,.9,.81,.35,1.53,.77,2.18,1.28,.64,.5,1.17,1.12,1.59,1.84,.42,.73,.63,1.6,.63,2.63v.08c0,1.25-.22,2.34-.65,3.24Z"/><path class="cls-1" d="M415.2,43.53c-.43,.91-1.04,1.65-1.82,2.24-.78,.59-1.69,1.03-2.74,1.32s-2.17,.44-3.37,.44c-1.59,0-3.21-.27-4.87-.82-1.66-.54-3.24-1.4-4.75-2.57l2.72-4.18c1.23,.89,2.45,1.56,3.66,2.01,1.21,.45,2.35,.67,3.41,.67,.92,0,1.6-.15,2.03-.46,.43-.31,.65-.71,.65-1.21v-.08c0-.33-.13-.63-.38-.88-.25-.25-.59-.47-1.02-.65-.43-.18-.93-.36-1.48-.52-.56-.17-1.14-.35-1.76-.54-.78-.22-1.57-.49-2.36-.82-.8-.32-1.51-.74-2.15-1.26-.64-.51-1.17-1.15-1.57-1.9-.41-.75-.61-1.67-.61-2.76v-.08c0-1.14,.22-2.15,.65-3.03,.43-.88,1.02-1.62,1.76-2.24,.74-.61,1.6-1.07,2.6-1.38,.99-.31,2.06-.46,3.2-.46,1.42,0,2.86,.23,4.33,.69,1.47,.46,2.81,1.09,4.04,1.9l-2.43,4.39c-1.12-.64-2.2-1.15-3.26-1.53-1.06-.38-2-.56-2.8-.56s-1.37,.15-1.76,.44c-.39,.29-.59,.66-.59,1.11v.08c0,.31,.13,.58,.38,.82,.25,.24,.59,.46,1,.67s.9,.41,1.44,.61c.54,.19,1.12,.39,1.74,.59,.78,.25,1.57,.55,2.38,.9,.81,.35,1.53,.77,2.18,1.28,.64,.5,1.17,1.12,1.59,1.84,.42,.73,.63,1.6,.63,2.63v.08c0,1.25-.22,2.34-.65,3.24Z"/><path class="cls-1" d="M442.66,40.48c-.61,1.41-1.47,2.64-2.55,3.7-1.09,1.06-2.37,1.9-3.85,2.51-1.48,.61-3.1,.92-4.85,.92s-3.33-.3-4.81-.9c-1.48-.6-2.76-1.42-3.83-2.47-1.07-1.05-1.92-2.27-2.53-3.68-.61-1.41-.92-2.92-.92-4.54v-.08c0-1.62,.31-3.13,.92-4.54,.61-1.41,1.47-2.64,2.55-3.7,1.09-1.06,2.37-1.9,3.85-2.51,1.48-.61,3.1-.92,4.85-.92s3.33,.3,4.81,.9c1.48,.6,2.75,1.42,3.83,2.47,1.07,1.05,1.92,2.27,2.53,3.68,.61,1.41,.92,2.92,.92,4.54v.08c0,1.62-.31,3.13-.92,4.54Zm-5.35-4.54c0-.84-.14-1.62-.42-2.36-.28-.74-.68-1.39-1.21-1.97-.53-.57-1.16-1.02-1.88-1.36-.73-.33-1.52-.5-2.39-.5-.92,0-1.73,.16-2.45,.48-.71,.32-1.32,.76-1.82,1.32-.5,.56-.89,1.21-1.15,1.95s-.4,1.53-.4,2.36v.08c0,.84,.14,1.62,.42,2.36,.28,.74,.68,1.4,1.21,1.97,.53,.57,1.15,1.03,1.86,1.36,.71,.33,1.51,.5,2.4,.5s1.73-.16,2.45-.48c.71-.32,1.32-.76,1.82-1.32,.5-.56,.89-1.2,1.15-1.94s.4-1.53,.4-2.36v-.08Z"/><g><path class="cls-2" d="M109.19,77.57c-1.4,.61-3,.92-4.8,.92-1.54,0-2.94-.25-4.21-.76-1.27-.51-2.36-1.21-3.27-2.11-.91-.9-1.62-1.97-2.13-3.21s-.76-2.59-.76-4.05v-.06c0-1.41,.26-2.73,.77-3.96,.52-1.23,1.23-2.31,2.15-3.24,.92-.93,2.01-1.66,3.27-2.2,1.26-.54,2.64-.8,4.14-.8,.88,0,1.68,.06,2.41,.18,.72,.12,1.39,.3,2.01,.52,.62,.23,1.2,.51,1.75,.84s1.07,.72,1.58,1.15l-2.73,3.29c-.38-.32-.75-.6-1.13-.84-.38-.24-.77-.45-1.17-.62-.4-.17-.84-.3-1.31-.39-.47-.09-.99-.14-1.55-.14-.79,0-1.52,.16-2.21,.49-.69,.33-1.29,.77-1.8,1.33s-.92,1.2-1.21,1.95c-.29,.74-.44,1.54-.44,2.38v.06c0,.9,.14,1.74,.44,2.5,.29,.76,.7,1.43,1.24,1.99,.54,.56,1.16,1,1.89,1.31s1.52,.47,2.41,.47c1.61,0,2.97-.4,4.08-1.19v-2.83h-4.36v-3.74h8.56v8.56c-1.01,.86-2.22,1.6-3.62,2.21Z"/><path class="cls-2" d="M125.39,67.25c-1.43,0-2.55,.43-3.36,1.29-.82,.86-1.23,2.21-1.23,4.03v5.57h-4.28v-15.09h4.28v3.04c.43-1.03,1.02-1.86,1.77-2.48,.75-.62,1.76-.9,3.04-.84v4.48h-.23Z"/><path class="cls-2" d="M137.13,78.14v-1.63c-.53,.58-1.15,1.05-1.89,1.39s-1.62,.52-2.68,.52c-.71,0-1.38-.1-2.01-.3s-1.18-.49-1.65-.89c-.47-.39-.84-.88-1.11-1.45s-.41-1.23-.41-1.98v-.06c0-.83,.15-1.54,.45-2.14,.3-.6,.72-1.1,1.25-1.49,.54-.39,1.17-.69,1.91-.89,.74-.2,1.56-.3,2.46-.3,.77,0,1.44,.06,2.01,.17,.57,.11,1.13,.26,1.68,.45v-.25c0-.9-.27-1.59-.82-2.06-.54-.47-1.35-.7-2.42-.7-.83,0-1.55,.07-2.18,.21-.63,.14-1.29,.34-1.98,.6l-1.07-3.27c.83-.36,1.69-.65,2.59-.87,.9-.22,1.99-.34,3.27-.34,2.35,0,4.05,.57,5.12,1.72,1.07,1.14,1.6,2.74,1.6,4.79v8.76h-4.14Zm.08-6.08c-.38-.17-.79-.3-1.25-.41-.46-.1-.95-.15-1.48-.15-.92,0-1.64,.18-2.17,.54-.53,.36-.79,.87-.79,1.55v.06c0,.58,.22,1.03,.65,1.35,.43,.32,1,.48,1.69,.48,1.01,0,1.82-.24,2.43-.73,.61-.49,.91-1.13,.91-1.91v-.76Z"/><path class="cls-2" d="M160.23,73.96c-.38,.97-.89,1.78-1.52,2.45-.63,.67-1.36,1.17-2.18,1.51-.83,.34-1.69,.51-2.59,.51-1.15,0-2.09-.22-2.83-.67-.74-.45-1.37-.97-1.87-1.56v6.46h-4.28v-19.59h4.28v2.15c.53-.71,1.16-1.29,1.9-1.75s1.68-.68,2.8-.68c.88,0,1.74,.17,2.56,.51,.83,.34,1.56,.84,2.2,1.51,.64,.67,1.15,1.48,1.54,2.45,.38,.97,.58,2.08,.58,3.34v.06c0,1.26-.19,2.37-.58,3.34Zm-3.7-3.39c0-.62-.1-1.2-.3-1.71s-.46-.96-.8-1.33c-.34-.37-.73-.65-1.17-.85-.44-.2-.91-.3-1.42-.3s-.98,.1-1.42,.3-.83,.48-1.15,.85c-.33,.37-.59,.81-.79,1.33-.2,.52-.3,1.09-.3,1.71v.06c0,.62,.1,1.2,.3,1.71,.2,.52,.46,.96,.79,1.33,.33,.37,.71,.65,1.15,.85,.44,.2,.92,.3,1.42,.3s.98-.1,1.42-.3c.44-.2,.83-.48,1.17-.85,.34-.37,.6-.81,.8-1.32,.2-.51,.3-1.09,.3-1.73v-.06Z"/><path class="cls-2" d="M173.5,78.14v-8.4c0-1.01-.23-1.77-.68-2.29-.45-.52-1.09-.77-1.91-.77s-1.48,.26-1.96,.77c-.48,.51-.72,1.28-.72,2.29v8.4h-4.28v-20.55h4.28v7.62c.24-.32,.51-.63,.8-.92,.29-.29,.61-.55,.97-.78,.36-.23,.75-.41,1.18-.54,.43-.13,.92-.2,1.46-.2,1.63,0,2.89,.5,3.79,1.49,.89,1,1.34,2.37,1.34,4.11v9.77h-4.28Z"/><path class="cls-2" d="M181.58,61.39v-3.8h4.5v3.8h-4.5Zm.11,16.75v-15.09h4.28v15.09h-4.28Z"/><path class="cls-2" d="M200.78,77.71c-.94,.52-2.16,.77-3.66,.77-1.13,0-2.17-.21-3.14-.62-.97-.41-1.8-.97-2.49-1.68-.69-.7-1.24-1.53-1.63-2.48s-.59-1.96-.59-3.03v-.06c0-1.07,.2-2.08,.59-3.04,.39-.96,.94-1.79,1.63-2.51,.69-.71,1.52-1.28,2.49-1.69,.97-.41,2.03-.62,3.19-.62,1.43,0,2.61,.23,3.55,.68,.94,.45,1.76,1.07,2.48,1.86l-2.62,2.82c-.49-.51-.99-.91-1.51-1.21s-1.16-.45-1.93-.45c-.54,0-1.04,.11-1.48,.32-.44,.22-.83,.51-1.15,.89-.33,.38-.58,.81-.76,1.31s-.27,1.03-.27,1.59v.06c0,.58,.09,1.13,.27,1.63,.18,.51,.44,.95,.77,1.32,.34,.38,.74,.67,1.21,.89,.47,.22,1,.32,1.58,.32,.71,0,1.34-.14,1.87-.44,.53-.29,1.06-.68,1.59-1.17l2.51,2.53c-.73,.81-1.57,1.47-2.51,1.98Z"/><path class="cls-2" d="M228.23,78.54l-2.28-2.31c-.81,.66-1.69,1.19-2.63,1.59s-1.99,.6-3.14,.6c-.94,0-1.81-.13-2.62-.39-.81-.26-1.5-.64-2.1-1.14-.59-.5-1.06-1.1-1.39-1.8-.34-.7-.51-1.5-.51-2.38,0-1.28,.33-2.36,.99-3.25,.66-.89,1.6-1.62,2.84-2.18-.49-.69-.84-1.36-1.06-1.98-.22-.63-.32-1.29-.32-1.98s.13-1.33,.39-1.96c.26-.63,.65-1.18,1.15-1.66,.51-.48,1.13-.86,1.87-1.15,.74-.29,1.59-.44,2.55-.44,.84,0,1.6,.13,2.28,.38,.68,.25,1.26,.61,1.74,1.06,.49,.45,.86,.98,1.13,1.59,.26,.61,.39,1.26,.39,1.96,0,1.33-.38,2.41-1.15,3.24s-1.77,1.47-2.98,1.94l2.62,2.62c.32-.51,.64-1.05,.96-1.62,.32-.57,.64-1.16,.96-1.76l3.18,1.74c-.38,.69-.78,1.4-1.21,2.11-.43,.71-.89,1.4-1.38,2.06l2.9,2.9-3.18,2.22Zm-8.48-8.61c-.66,.34-1.13,.74-1.41,1.2-.28,.46-.42,.93-.42,1.42,0,.71,.26,1.28,.77,1.7,.52,.42,1.18,.63,1.98,.63,.49,0,.97-.1,1.45-.3s.94-.47,1.39-.83l-3.77-3.83Zm3.48-7.97c-.35-.32-.79-.48-1.34-.48-.58,0-1.05,.19-1.39,.56-.35,.38-.52,.86-.52,1.46,0,.45,.09,.86,.27,1.22s.47,.78,.89,1.25c.86-.32,1.52-.68,1.96-1.08,.44-.4,.66-.92,.66-1.56,0-.6-.17-1.06-.52-1.38Z"/><path class="cls-2" d="M264.66,78.28h-3.77l-4.45-12.89-4.45,12.89h-3.77l-6.73-19.85h4.64l4.08,13.34,4.42-13.4h3.72l4.42,13.4,4.08-13.34h4.53l-6.73,19.85Z"/><path class="cls-2" d="M288.21,71.56c0,.15-.02,.33-.04,.53h-10.5c.21,.98,.63,1.71,1.28,2.21,.65,.5,1.45,.75,2.41,.75,.71,0,1.35-.12,1.91-.37,.56-.24,1.15-.64,1.74-1.18l2.45,2.17c-.71,.88-1.58,1.57-2.59,2.07-1.01,.5-2.21,.75-3.58,.75-1.13,0-2.17-.19-3.14-.56-.97-.37-1.8-.91-2.51-1.6-.7-.69-1.25-1.51-1.65-2.46-.39-.95-.59-2-.59-3.17v-.06c0-1.07,.18-2.08,.55-3.04,.36-.96,.88-1.79,1.53-2.51,.66-.71,1.44-1.28,2.35-1.69,.91-.41,1.92-.62,3.03-.62,1.26,0,2.34,.23,3.26,.68,.92,.45,1.68,1.06,2.29,1.82,.61,.76,1.06,1.63,1.35,2.62,.29,.99,.44,2.01,.44,3.08v.06c0,.21,0,.38-.01,.54Zm-5.17-4.46c-.54-.59-1.27-.89-2.17-.89s-1.63,.29-2.18,.87-.91,1.36-1.08,2.34h6.45c-.13-.96-.47-1.73-1.01-2.32Z"/><path class="cls-2" d="M306.68,73.96c-.38,.97-.89,1.78-1.52,2.45s-1.36,1.17-2.18,1.51c-.82,.34-1.69,.51-2.59,.51-1.14,0-2.09-.22-2.83-.67-.74-.45-1.37-.97-1.87-1.56v1.95h-4.28v-20.55h4.28v7.61c.53-.71,1.16-1.29,1.9-1.75,.74-.46,1.68-.68,2.8-.68,.88,0,1.74,.17,2.56,.51,.83,.34,1.56,.84,2.2,1.51,.64,.67,1.15,1.48,1.53,2.45s.58,2.08,.58,3.34v.06c0,1.26-.19,2.37-.58,3.34Zm-3.7-3.39c0-.62-.1-1.2-.3-1.71-.2-.52-.46-.96-.8-1.33-.34-.37-.73-.65-1.17-.85-.44-.2-.91-.3-1.42-.3s-.98,.1-1.42,.3c-.44,.2-.83,.48-1.15,.85s-.59,.81-.79,1.33c-.2,.52-.3,1.09-.3,1.71v.06c0,.62,.1,1.2,.3,1.71,.2,.52,.46,.96,.79,1.33,.33,.37,.71,.65,1.15,.85,.44,.2,.91,.3,1.42,.3s.98-.1,1.42-.3c.44-.2,.83-.48,1.17-.85,.34-.37,.61-.81,.8-1.32,.2-.51,.3-1.09,.3-1.73v-.06Z"/><path class="cls-2" d="M336.7,72.17c-.51,1.2-1.22,2.24-2.15,3.12-.93,.88-2.04,1.58-3.32,2.08s-2.7,.76-4.24,.76h-7.69v-19.71h7.69c1.54,0,2.95,.25,4.24,.75,1.28,.5,2.39,1.19,3.32,2.07,.93,.88,1.65,1.92,2.15,3.11,.51,1.19,.76,2.48,.76,3.87v.06c0,1.39-.25,2.68-.76,3.88Zm-3.77-3.88c0-.86-.14-1.66-.44-2.39-.29-.73-.69-1.36-1.21-1.89-.52-.53-1.14-.93-1.87-1.23-.73-.29-1.54-.44-2.42-.44h-3.35v11.88h3.35c.88,0,1.69-.14,2.42-.42,.73-.28,1.36-.68,1.87-1.21,.52-.53,.92-1.14,1.21-1.86,.29-.71,.44-1.51,.44-2.39v-.06Z"/><path class="cls-2" d="M354.93,71.56c0,.15-.02,.33-.04,.53h-10.5c.21,.98,.63,1.71,1.28,2.21,.65,.5,1.45,.75,2.41,.75,.71,0,1.35-.12,1.91-.37,.56-.24,1.15-.64,1.74-1.18l2.45,2.17c-.71,.88-1.58,1.57-2.59,2.07-1.01,.5-2.21,.75-3.58,.75-1.13,0-2.17-.19-3.14-.56-.97-.37-1.8-.91-2.51-1.6-.7-.69-1.25-1.51-1.65-2.46-.39-.95-.59-2-.59-3.17v-.06c0-1.07,.18-2.08,.55-3.04,.36-.96,.88-1.79,1.53-2.51,.66-.71,1.44-1.28,2.35-1.69,.91-.41,1.92-.62,3.03-.62,1.26,0,2.34,.23,3.26,.68,.92,.45,1.68,1.06,2.29,1.82,.61,.76,1.06,1.63,1.35,2.62,.29,.99,.44,2.01,.44,3.08v.06c0,.21,0,.38-.01,.54Zm-5.17-4.46c-.54-.59-1.27-.89-2.17-.89s-1.63,.29-2.18,.87c-.55,.58-.91,1.36-1.08,2.34h6.45c-.13-.96-.47-1.73-1.01-2.32Z"/><path class="cls-2" d="M368.75,75.74c-.29,.61-.7,1.11-1.22,1.51-.53,.39-1.14,.69-1.84,.89s-1.46,.3-2.27,.3c-1.07,0-2.16-.18-3.28-.55-1.12-.37-2.18-.94-3.2-1.73l1.83-2.82c.82,.6,1.65,1.05,2.46,1.35,.82,.3,1.58,.45,2.29,.45,.62,0,1.07-.1,1.37-.31,.29-.21,.44-.48,.44-.82v-.06c0-.23-.08-.42-.25-.59-.17-.17-.4-.31-.69-.44-.29-.12-.62-.24-1-.35-.38-.11-.77-.23-1.18-.37-.53-.15-1.06-.33-1.59-.55-.54-.22-1.02-.5-1.45-.84-.43-.35-.78-.77-1.06-1.28-.27-.51-.41-1.13-.41-1.86v-.06c0-.77,.14-1.45,.44-2.04,.29-.59,.69-1.09,1.18-1.51,.5-.41,1.08-.72,1.75-.93,.67-.21,1.38-.31,2.15-.31,.96,0,1.93,.15,2.91,.46,.99,.31,1.89,.74,2.72,1.28l-1.63,2.96c-.75-.43-1.48-.77-2.2-1.03-.71-.25-1.34-.38-1.89-.38s-.92,.1-1.18,.3c-.26,.2-.39,.45-.39,.75v.06c0,.21,.08,.39,.25,.55,.17,.16,.39,.31,.67,.45s.61,.28,.97,.41c.37,.13,.76,.26,1.17,.39,.52,.17,1.06,.37,1.6,.6,.54,.24,1.03,.52,1.46,.86,.43,.34,.79,.75,1.07,1.24,.28,.49,.42,1.08,.42,1.77v.06c0,.84-.14,1.57-.44,2.18Z"/><path class="cls-2" d="M372.34,61.39v-3.8h4.5v3.8h-4.5Zm.11,16.75v-15.09h4.28v15.09h-4.28Z"/><path class="cls-2" d="M395.41,78.38c-.35,1-.87,1.83-1.58,2.46-.7,.64-1.58,1.11-2.63,1.41-1.05,.3-2.28,.45-3.69,.45-1.24,0-2.42-.14-3.55-.41-1.13-.27-2.17-.66-3.12-1.17l1.46-3.21c.79,.43,1.58,.77,2.38,1.01s1.7,.37,2.72,.37c1.46,0,2.55-.35,3.25-1.04,.7-.69,1.06-1.72,1.06-3.07v-.73c-.64,.77-1.33,1.37-2.08,1.8-.75,.43-1.7,.65-2.84,.65-.88,0-1.73-.15-2.53-.46-.81-.31-1.52-.76-2.14-1.36-.62-.6-1.11-1.34-1.48-2.21-.36-.87-.55-1.87-.55-3v-.06c0-1.13,.19-2.13,.56-3,.38-.87,.87-1.61,1.49-2.21,.62-.6,1.33-1.06,2.14-1.37,.81-.31,1.64-.46,2.51-.46,1.16,0,2.12,.22,2.87,.65,.75,.43,1.42,.97,2,1.6v-1.97h4.28v11.68c0,1.43-.17,2.64-.52,3.65Zm-3.7-8.57c0-.51-.1-.98-.28-1.41-.19-.43-.45-.8-.77-1.11-.33-.31-.72-.55-1.17-.72s-.94-.25-1.46-.25-1.01,.08-1.45,.25c-.44,.17-.82,.41-1.15,.72-.33,.31-.59,.68-.78,1.11s-.28,.9-.28,1.41v.06c0,1.05,.35,1.9,1.04,2.53,.69,.64,1.57,.96,2.62,.96,.53,0,1.01-.09,1.46-.25s.84-.41,1.17-.72c.33-.31,.58-.68,.77-1.11,.19-.43,.28-.9,.28-1.41v-.06Z"/><path class="cls-2" d="M409.31,78.14v-8.4c0-1.01-.23-1.77-.68-2.29-.45-.52-1.09-.77-1.92-.77s-1.48,.26-1.96,.77c-.48,.51-.72,1.28-.72,2.29v8.4h-4.28v-15.09h4.28v2.16c.24-.32,.51-.63,.8-.92,.29-.29,.61-.55,.97-.78,.36-.23,.75-.41,1.18-.54,.43-.13,.92-.2,1.46-.2,1.63,0,2.89,.5,3.79,1.49,.89,1,1.34,2.37,1.34,4.11v9.77h-4.28Z"/><path class="cls-2" d="M431.36,71.56c0,.15-.02,.33-.04,.53h-10.5c.21,.98,.63,1.71,1.28,2.21,.65,.5,1.45,.75,2.41,.75,.71,0,1.35-.12,1.91-.37,.56-.24,1.15-.64,1.74-1.18l2.45,2.17c-.71,.88-1.58,1.57-2.59,2.07-1.01,.5-2.21,.75-3.58,.75-1.13,0-2.17-.19-3.14-.56-.97-.37-1.8-.91-2.51-1.6-.7-.69-1.25-1.51-1.65-2.46-.39-.95-.59-2-.59-3.17v-.06c0-1.07,.18-2.08,.55-3.04,.36-.96,.88-1.79,1.53-2.51,.66-.71,1.44-1.28,2.35-1.69,.91-.41,1.92-.62,3.03-.62,1.26,0,2.34,.23,3.26,.68,.92,.45,1.68,1.06,2.29,1.82,.61,.76,1.06,1.63,1.35,2.62,.29,.99,.44,2.01,.44,3.08v.06c0,.21,0,.38-.01,.54Zm-5.17-4.46c-.54-.59-1.27-.89-2.17-.89s-1.63,.29-2.18,.87-.91,1.36-1.08,2.34h6.45c-.13-.96-.47-1.73-1.01-2.32Z"/><path class="cls-2" d="M443.43,67.25c-1.43,0-2.55,.43-3.37,1.29-.82,.86-1.22,2.21-1.22,4.03v5.57h-4.28v-15.09h4.28v3.04c.43-1.03,1.02-1.86,1.77-2.48,.75-.62,1.76-.9,3.04-.84v4.48h-.23Z"/></g></g></g></g></svg>