<svg width="249" height="57" viewBox="0 0 249 57" fill="none" xmlns="http://www.w3.org/2000/svg">
<path d="M14.808 9.56V6.2H2.016V23H5.712V16.496H13.728V13.136H5.712V9.56H14.808ZM29.07 23V10.136H25.422V17.312C25.422 19.04 24.534 19.928 23.142 19.928C21.75 19.928 20.934 19.04 20.934 17.312V10.136H17.286V18.464C17.286 21.416 18.894 23.24 21.654 23.24C23.502 23.24 24.582 22.256 25.422 21.176V23H29.07ZM36.1511 23V5.48H32.5031V23H36.1511ZM43.3933 23V5.48H39.7453V23H43.3933ZM63.4468 19.088V19.04C63.4468 16.688 61.3588 15.824 59.5588 15.224C58.1668 14.744 56.9428 14.408 56.9428 13.688V13.64C56.9428 13.136 57.3988 12.752 58.2868 12.752C59.2228 12.752 60.4948 13.208 61.7668 13.952L63.1588 11.432C61.7668 10.496 59.9908 9.944 58.3588 9.944C55.7668 9.944 53.6548 11.408 53.6548 14.024V14.072C53.6548 16.568 55.6948 17.408 57.4948 17.936C58.9108 18.368 60.1588 18.632 60.1588 19.424V19.472C60.1588 20.048 59.6788 20.432 58.6228 20.432C57.4228 20.432 55.9588 19.904 54.5668 18.896L53.0068 21.296C54.7108 22.64 56.7268 23.24 58.5268 23.24C61.3108 23.24 63.4468 21.944 63.4468 19.088ZM73.0513 22.472V19.544C72.5233 19.832 71.9233 20 71.2513 20C70.4353 20 70.0753 19.592 70.0753 18.752V13.256H73.0993V10.136H70.0753V6.848H66.4273V10.136H64.8913V13.256H66.4273V19.352C66.4273 22.328 67.9393 23.216 70.1713 23.216C71.3953 23.216 72.2833 22.928 73.0513 22.472ZM86.8523 23V15.536C86.8523 12.056 85.1003 9.992 81.1163 9.992C78.9323 9.992 77.5403 10.4 76.1243 11.024L77.0363 13.808C78.2123 13.376 79.1963 13.112 80.5883 13.112C82.4123 13.112 83.3483 13.952 83.3483 15.464V15.68C82.4363 15.368 81.5003 15.152 80.2043 15.152C77.1562 15.152 75.0203 16.448 75.0203 19.256V19.304C75.0203 21.848 77.0123 23.24 79.4363 23.24C81.2122 23.24 82.4363 22.592 83.3243 21.608V23H86.8523ZM83.3963 18.464C83.3963 19.784 82.2443 20.72 80.5403 20.72C79.3643 20.72 78.5483 20.144 78.5483 19.16V19.112C78.5483 17.96 79.5083 17.336 81.0683 17.336C81.9563 17.336 82.7723 17.528 83.3963 17.816V18.464ZM101.319 20.936L99.1834 18.776C98.2954 19.616 97.4554 20.144 96.2314 20.144C94.2394 20.144 92.9674 18.56 92.9674 16.592V16.544C92.9674 14.648 94.2634 13.04 96.0874 13.04C97.3834 13.04 98.1994 13.592 99.0154 14.456L101.247 12.056C100.047 10.712 98.5354 9.896 96.1114 9.896C92.1754 9.896 89.3674 12.92 89.3674 16.592V16.64C89.3674 20.312 92.1994 23.288 96.0634 23.288C98.6314 23.288 100.071 22.304 101.319 20.936ZM116.158 23L111.094 15.2L115.99 10.136H111.622L107.35 14.816V5.48H103.702V23H107.35V19.088L108.622 17.744L111.982 23H116.158ZM140.965 14.6V14.552C140.965 9.824 137.317 6.2 132.037 6.2H125.485V23H132.037C137.317 23 140.965 19.328 140.965 14.6ZM137.101 14.648C137.101 17.624 135.061 19.664 132.037 19.664H129.181V9.536H132.037C135.061 9.536 137.101 11.624 137.101 14.6V14.648ZM155.874 16.928V16.88C155.874 13.232 153.906 9.896 149.61 9.896C145.866 9.896 143.25 12.92 143.25 16.592V16.64C143.25 20.576 146.106 23.288 149.97 23.288C152.298 23.288 154.026 22.376 155.226 20.888L153.138 19.04C152.13 19.976 151.242 20.36 150.018 20.36C148.386 20.36 147.234 19.496 146.874 17.84H155.826C155.85 17.504 155.874 17.288 155.874 16.928ZM152.322 15.56H146.826C147.114 13.904 148.098 12.824 149.61 12.824C151.146 12.824 152.106 13.928 152.322 15.56ZM170.272 10.136H166.48L163.576 18.752L160.696 10.136H156.832L161.896 23.096H165.208L170.272 10.136ZM183.648 16.928V16.88C183.648 13.232 181.68 9.896 177.384 9.896C173.64 9.896 171.024 12.92 171.024 16.592V16.64C171.024 20.576 173.88 23.288 177.744 23.288C180.072 23.288 181.8 22.376 183 20.888L180.912 19.04C179.904 19.976 179.016 20.36 177.792 20.36C176.16 20.36 175.008 19.496 174.648 17.84H183.6C183.624 17.504 183.648 17.288 183.648 16.928ZM180.096 15.56H174.6C174.888 13.904 175.872 12.824 177.384 12.824C178.92 12.824 179.88 13.928 180.096 15.56ZM190.182 23V5.48H186.534V23H190.182ZM206.905 16.592V16.544C206.905 12.848 203.953 9.896 199.969 9.896C195.961 9.896 192.985 12.896 192.985 16.592V16.64C192.985 20.336 195.937 23.288 199.921 23.288C203.929 23.288 206.905 20.288 206.905 16.592ZM203.305 16.64C203.305 18.536 202.057 20.144 199.969 20.144C197.953 20.144 196.585 18.488 196.585 16.592V16.544C196.585 14.648 197.833 13.04 199.921 13.04C201.937 13.04 203.305 14.696 203.305 16.592V16.64ZM223.058 16.592V16.544C223.058 12.248 220.202 9.896 217.202 9.896C215.306 9.896 214.082 10.784 213.194 11.984V10.136H209.546V26.84H213.194V21.32C214.058 22.352 215.258 23.24 217.202 23.24C220.25 23.24 223.058 20.888 223.058 16.592ZM219.41 16.592C219.41 18.752 217.97 20.144 216.266 20.144C214.562 20.144 213.146 18.728 213.146 16.592V16.544C213.146 14.408 214.562 12.992 216.266 12.992C217.97 12.992 219.41 14.408 219.41 16.544V16.592ZM237.741 16.928V16.88C237.741 13.232 235.773 9.896 231.477 9.896C227.733 9.896 225.117 12.92 225.117 16.592V16.64C225.117 20.576 227.973 23.288 231.837 23.288C234.165 23.288 235.893 22.376 237.093 20.888L235.005 19.04C233.997 19.976 233.109 20.36 231.885 20.36C230.253 20.36 229.101 19.496 228.741 17.84H237.693C237.717 17.504 237.741 17.288 237.741 16.928ZM234.189 15.56H228.693C228.981 13.904 229.965 12.824 231.477 12.824C233.013 12.824 233.973 13.928 234.189 15.56ZM248.212 13.712V9.896C246.052 9.8 244.852 10.952 244.108 12.728V10.136H240.46V23H244.108V18.248C244.108 15.176 245.596 13.712 248.02 13.712H248.212Z" fill="#9BBAC9"/>
<path d="M151.64 53H152.62L156.54 38.4H155.56L151.64 53ZM161.56 53.24C162.347 53.24 163.107 53.0733 163.84 52.74C164.573 52.4067 165.22 51.96 165.78 51.4C166.34 50.84 166.787 50.1867 167.12 49.44C167.453 48.6933 167.62 47.9067 167.62 47.08C167.62 46.4267 167.507 45.8267 167.28 45.28C167.067 44.72 166.76 44.24 166.36 43.84C165.96 43.44 165.48 43.1267 164.92 42.9C164.373 42.6733 163.76 42.56 163.08 42.56C162.267 42.56 161.493 42.7333 160.76 43.08C160.027 43.4133 159.38 43.8667 158.82 44.44C158.273 45 157.833 45.6533 157.5 46.4C157.18 47.1467 157.02 47.92 157.02 48.72C157.02 49.3733 157.127 49.98 157.34 50.54C157.567 51.0867 157.88 51.56 158.28 51.96C158.68 52.36 159.153 52.6733 159.7 52.9C160.26 53.1267 160.88 53.24 161.56 53.24ZM161.66 52.32C160.593 52.32 159.727 52.0067 159.06 51.38C158.407 50.74 158.08 49.84 158.08 48.68C158.08 48 158.213 47.3467 158.48 46.72C158.747 46.0933 159.107 45.54 159.56 45.06C160.013 44.58 160.533 44.2 161.12 43.92C161.72 43.6267 162.34 43.48 162.98 43.48C164.047 43.48 164.907 43.8 165.56 44.44C166.227 45.0667 166.56 45.96 166.56 47.12C166.56 47.8267 166.42 48.4933 166.14 49.12C165.86 49.7467 165.493 50.3 165.04 50.78C164.587 51.2467 164.06 51.62 163.46 51.9C162.873 52.18 162.273 52.32 161.66 52.32ZM172.456 53.24C173.35 53.24 174.13 53.0533 174.796 52.68C175.476 52.3067 176.063 51.8267 176.556 51.24L176.096 53H177.056L178.616 47.16C178.683 46.9333 178.73 46.7 178.756 46.46C178.796 46.22 178.816 46.0067 178.816 45.82C178.816 44.8333 178.47 44.06 177.776 43.5C177.083 42.9267 176.11 42.64 174.856 42.64C174.216 42.64 173.643 42.6933 173.136 42.8C172.643 42.8933 172.143 43.0333 171.636 43.22L171.816 44.1C172.31 43.9267 172.783 43.7933 173.236 43.7C173.703 43.6067 174.216 43.56 174.776 43.56C175.776 43.56 176.536 43.7667 177.056 44.18C177.59 44.5933 177.856 45.1867 177.856 45.96C177.856 46.1067 177.843 46.28 177.816 46.48C177.79 46.6667 177.756 46.8333 177.716 46.98L177.636 47.26C177.13 47.1133 176.53 46.98 175.836 46.86C175.156 46.74 174.45 46.68 173.716 46.68C173.05 46.68 172.43 46.7667 171.856 46.94C171.296 47.1133 170.81 47.36 170.396 47.68C169.996 48 169.683 48.3933 169.456 48.86C169.23 49.3133 169.116 49.82 169.116 50.38C169.116 50.86 169.21 51.28 169.396 51.64C169.583 51.9867 169.83 52.28 170.136 52.52C170.456 52.76 170.816 52.94 171.216 53.06C171.616 53.18 172.03 53.24 172.456 53.24ZM172.636 52.34C171.876 52.34 171.27 52.1533 170.816 51.78C170.376 51.4067 170.156 50.9 170.156 50.26C170.156 49.86 170.236 49.5 170.396 49.18C170.57 48.8467 170.803 48.56 171.096 48.32C171.403 48.08 171.763 47.8933 172.176 47.76C172.603 47.6267 173.07 47.56 173.576 47.56C174.336 47.56 175.036 47.6067 175.676 47.7C176.33 47.7933 176.916 47.9067 177.436 48.04L177.196 48.94C177.05 49.46 176.823 49.9267 176.516 50.34C176.21 50.7533 175.843 51.1133 175.416 51.42C175.003 51.7133 174.556 51.94 174.076 52.1C173.596 52.26 173.116 52.34 172.636 52.34ZM185.262 53.26C186.169 53.26 186.969 53.04 187.662 52.6C188.369 52.16 188.975 51.6333 189.482 51.02L188.962 53H189.942L193.842 38.4H192.862L190.982 45.42C190.849 45.06 190.669 44.7067 190.442 44.36C190.215 44.0133 189.935 43.7067 189.602 43.44C189.282 43.1733 188.895 42.96 188.442 42.8C188.002 42.64 187.495 42.56 186.922 42.56C186.162 42.56 185.435 42.7267 184.742 43.06C184.049 43.38 183.435 43.8267 182.902 44.4C182.369 44.9733 181.942 45.6533 181.622 46.44C181.315 47.2133 181.162 48.0533 181.162 48.96C181.162 49.5867 181.262 50.1667 181.462 50.7C181.675 51.22 181.962 51.6733 182.322 52.06C182.695 52.4333 183.129 52.7267 183.622 52.94C184.129 53.1533 184.675 53.26 185.262 53.26ZM185.382 52.34C184.915 52.34 184.489 52.26 184.102 52.1C183.715 51.9267 183.382 51.6867 183.102 51.38C182.822 51.0733 182.602 50.7067 182.442 50.28C182.295 49.84 182.222 49.36 182.222 48.84C182.222 48.1333 182.335 47.46 182.562 46.82C182.802 46.1667 183.129 45.5933 183.542 45.1C183.969 44.6067 184.469 44.2133 185.042 43.92C185.629 43.6267 186.269 43.48 186.962 43.48C187.482 43.48 187.955 43.5733 188.382 43.76C188.822 43.9467 189.195 44.2 189.502 44.52C189.822 44.84 190.062 45.22 190.222 45.66C190.395 46.0867 190.482 46.5467 190.482 47.04C190.482 47.72 190.335 48.38 190.042 49.02C189.749 49.66 189.362 50.2267 188.882 50.72C188.402 51.2 187.855 51.5933 187.242 51.9C186.642 52.1933 186.022 52.34 185.382 52.34ZM197.148 40.14H198.368L198.728 38.8H197.508L197.148 40.14ZM193.808 53H194.788L197.528 42.8H196.548L193.808 53ZM198.668 53H199.648L201.188 47.24C201.335 46.68 201.555 46.1733 201.848 45.72C202.155 45.2533 202.501 44.8533 202.888 44.52C203.275 44.1733 203.688 43.9067 204.128 43.72C204.568 43.5333 205.008 43.44 205.448 43.44C206.261 43.44 206.901 43.66 207.368 44.1C207.835 44.54 208.068 45.14 208.068 45.9C208.068 46.0867 208.055 46.3 208.028 46.54C208.001 46.7667 207.961 46.9733 207.908 47.16L206.348 53H207.328L208.848 47.24C208.915 47 208.968 46.76 209.008 46.52C209.048 46.2667 209.068 46.0267 209.068 45.8C209.068 44.8133 208.761 44.0267 208.148 43.44C207.548 42.8533 206.741 42.56 205.728 42.56C205.301 42.56 204.901 42.62 204.528 42.74C204.168 42.8467 203.835 42.9933 203.528 43.18C203.221 43.3667 202.928 43.5933 202.648 43.86C202.381 44.1267 202.121 44.4067 201.868 44.7L202.368 42.8H201.388L198.668 53ZM215.115 56.24C215.968 56.24 216.708 56.1133 217.335 55.86C217.975 55.62 218.535 55.26 219.015 54.78C219.361 54.4333 219.668 54.0133 219.935 53.52C220.201 53.04 220.428 52.4467 220.615 51.74L222.995 42.8H222.015L221.355 45.28C221.208 44.9467 221.028 44.62 220.815 44.3C220.601 43.9667 220.335 43.6733 220.015 43.42C219.708 43.1667 219.335 42.96 218.895 42.8C218.468 42.64 217.961 42.56 217.375 42.56C216.655 42.56 215.948 42.7 215.255 42.98C214.561 43.26 213.941 43.6533 213.395 44.16C212.861 44.6533 212.428 45.2533 212.095 45.96C211.761 46.6533 211.595 47.4267 211.595 48.28C211.595 48.9067 211.715 49.4667 211.955 49.96C212.195 50.44 212.508 50.8533 212.895 51.2C213.295 51.5333 213.748 51.7933 214.255 51.98C214.775 52.1533 215.308 52.24 215.855 52.24C216.308 52.24 216.735 52.1867 217.135 52.08C217.535 51.9733 217.908 51.8267 218.255 51.64C218.601 51.4533 218.921 51.24 219.215 51C219.521 50.7467 219.801 50.4867 220.055 50.22L219.695 51.5C219.535 52.0733 219.348 52.5733 219.135 53C218.921 53.44 218.641 53.8333 218.295 54.18C217.961 54.5133 217.535 54.7867 217.015 55C216.495 55.2133 215.875 55.32 215.155 55.32C214.315 55.32 213.548 55.16 212.855 54.84C212.175 54.5333 211.561 54.1267 211.015 53.62L210.295 54.34C210.908 54.9267 211.635 55.3867 212.475 55.72C213.328 56.0667 214.208 56.24 215.115 56.24ZM216.035 51.32C215.608 51.32 215.188 51.2533 214.775 51.12C214.375 50.9867 214.015 50.7933 213.695 50.54C213.388 50.2733 213.135 49.9467 212.935 49.56C212.748 49.1733 212.655 48.7267 212.655 48.22C212.655 47.5267 212.788 46.8933 213.055 46.32C213.321 45.7333 213.668 45.2333 214.095 44.82C214.535 44.3933 215.035 44.0667 215.595 43.84C216.155 43.6133 216.735 43.5 217.335 43.5C217.895 43.5 218.395 43.5933 218.835 43.78C219.275 43.9667 219.648 44.2133 219.955 44.52C220.275 44.8267 220.515 45.18 220.675 45.58C220.835 45.9667 220.915 46.36 220.915 46.76C220.915 47.3333 220.781 47.8933 220.515 48.44C220.248 48.9867 219.888 49.4733 219.435 49.9C218.981 50.3267 218.461 50.6733 217.875 50.94C217.288 51.1933 216.675 51.32 216.035 51.32Z" fill="#6A8999"/>
<path d="M15 48H129" stroke="white" stroke-width="9"/>
<path d="M15 48H89" stroke="#9BBAC9" stroke-width="9"/>
</svg>
